<svg xmlns="http://www.w3.org/2000/svg" viewBox="0 0 1080 1080.77"><defs><style>.cls-1{fill:#92cfce;}.cls-2{fill:#f298c0;}</style></defs><g id="Logo_01"><path class="cls-1" d="M976.32,281c21.41,172.15-13,351.41-95.26,504.2l-1.2,2.21c-7.3,13.43-15.49,26.84-27.55,36.22s-28.85,14-43,8.18c-15.56-6.45-23.86-23.38-28.73-39.5-12.25-40.5-11.38-83.85-6.46-125.89A687.38,687.38,0,0,1,885.27,365.9q15.42-23.06,32.71-44.81c4.14-5.21,31.38-30.91,28.59-37.85-10-24.86-75.85-3.51-92,3.17C767,322.53,696.66,405.78,637.21,476.9c-6.94,8.31-79.77,95-168.53,181.62a706.17,706.17,0,0,1-97.27,80.36C320.05,774,254.62,812,189.83,802.64,119.65,792.51,65.78,726,64.11,656.37,63,608.31,86,571.57,115.39,536.1c47.4-57.17,132.42-131.92,213.92-105.73,10.13,3.26,35.65,11.46,49.33,36,20.73,37.23,1.41,88.75-34.16,109.31,35.85-15.63,69.78-45.75,65.92-88.28-2.24-24.67-16.47-47.51-36.31-62.34-115-86-281.48,61-327.42,162.49q-2.58,5.7-4.88,11.52C6.11,689.92,63.51,814.13,164,830.22c21.4,3.42,43.41,2.23,64.63-1.86,96.38-18.6,177-77.87,246.68-144C564.33,600,637,500.5,726.2,416.25q29.68-28.06,60.77-54.58c15.55-13.27,31.59-26.39,50.14-35,4-1.83,8.92-3.37,12.45-.79,11.2,8.17-13.48,44.89-18.37,53.07a632.23,632.23,0,0,0-56.74,122.17c-28.93,84.6-53.47,182.26-37.26,272,7.67,42.45,33.47,94.84,72.67,99.56,16.62,2,32.1-5.08,47.95-16.61,39.75-28.94,62.11-73.78,79.67-118.5,31.51-80.25,54.82-165.8,69.64-250.69q3.79-21.72,6.5-43.62c6.33-51.88,7.3-106.84-.22-158.65-8.09-55.82-28.83-118.77-81.63-146.22-37.12-19.3-80.69-19.9-120.93-12-44,8.68-72.64,30-99.5,49.59-28.81,21-58.83,43.8-75.55,76.15,54.92-35.92,115.48-82.22,182-91.92,71.46-10.41,134.82,23.85,153.57,95.87A193,193,0,0,1,976.32,281Z"/><path class="cls-2" d="M803.27,239.69c1.44,5.82-34.73,19.22-38.29,20.67a396.78,396.78,0,0,1-95.13,25.76c-82.4,11.33-158.26-25.81-229-62.91-25.56-13.41-52.22-25.78-80.76-30s-59.54.57-82.07,18.6c-20.08,16.07-31.5,41-36.21,66.26-16.09,86.42,17.43,177.11,47.33,256.71C315.44,604.77,344,674,377.4,741c16.89,33.78,35,66.95,54.74,99.18,15.15,24.8,44,67.68,76.59,39.12,7.58-6.64,12.8-15.55,17.35-24.54,14.62-28.89,23.64-60.16,31-91.56,3.51-14.85,6.6-29.69,10.75-44.34,4.67-16.47,10.83-32,12.89-49.13-3.48,85.64-3.38,172.54-37.26,252.86-6.14,14.55-14.66,30.11-29.68,35-15.53,5.05-31-3.3-36.65-6.31C413.28,917,333.24,717.57,296.28,628.49c-24.65-59.38-33.08-76.81-55.18-133.34-57.37-146.77-62.89-188.84-59.14-230,3.71-40.82,13.81-85.57,44.57-116.31C295.78,79.6,412.8,159.66,474,201.18c0,0,35,23.32,102.46,45.24C693.62,284.51,801.94,234.3,803.27,239.69Z"/><path class="cls-1" d="M497.53,533.15c2-11.32,133.93,21.54,225.29-34.48,9.72-6,22.9-15.33,24.14-13.79,2.44,3-36,55.13-94.25,74.71C574.78,585.78,495.93,542.13,497.53,533.15Z"/></g></svg>