<svg xmlns="http://www.w3.org/2000/svg" viewBox="0 0 1080 1080.77"><defs><style>.cls-1{fill:#fff;}.cls-2{fill:#92cfce;}.cls-3{fill:#f298c0;}</style></defs><g id="Logo_01"><circle class="cls-1" cx="540" cy="540.38" r="534.48"/><path class="cls-2" d="M897,320.12c19.08,153.36-11.53,313-84.86,449.15l-1.06,2c-6.51,12-13.8,23.91-24.55,32.26s-25.7,12.51-38.28,7.29C734.4,805,727,790,722.66,775.61c-10.92-36.09-10.13-74.7-5.75-112.15a612.26,612.26,0,0,1,99-267.68q13.74-20.53,29.14-39.91c3.69-4.65,28-27.55,25.47-33.72-8.93-22.15-67.57-3.13-82,2.82-78,32.18-140.64,106.33-193.59,169.69-6.18,7.4-71.06,84.66-150.13,161.79A630,630,0,0,1,358.14,728c-45.75,31.27-104,65.12-161.76,56.79-62.51-9-110.5-68.27-112-130.3-1-42.81,19.48-75.53,45.68-107.14,42.23-50.92,118-117.51,190.57-94.18,9,2.9,31.75,10.21,43.94,32.11,18.46,33.16,1.26,79.06-30.43,97.37,31.93-13.92,62.16-40.75,58.72-78.64-2-22-14.67-42.32-32.35-55.53C258.07,371.94,109.78,502.87,68.85,593.27q-2.3,5.07-4.34,10.26C32.72,684.42,83.86,795.07,173.36,809.4c19.06,3.05,38.67,2,57.57-1.66,85.86-16.57,157.65-69.36,219.75-128.23C530,604.32,594.77,515.69,674.19,440.63q26.44-25,54.14-48.62c13.85-11.82,28.14-23.5,44.67-31.15,3.53-1.63,7.93-3,11.08-.7,10,7.28-12,40-16.37,47.27a563.18,563.18,0,0,0-50.53,108.84C691.4,591.63,669.54,678.62,684,758.55c6.83,37.82,29.8,84.49,64.72,88.69,14.81,1.78,28.6-4.52,42.72-14.8,35.41-25.77,55.33-65.72,71-105.56,28.07-71.48,48.84-147.69,62-223.31q3.38-19.35,5.79-38.86c5.63-46.21,6.5-95.17-.19-141.33-7.22-49.72-25.69-105.8-72.72-130.25-33.07-17.19-71.88-17.73-107.73-10.67-39.22,7.73-64.71,26.73-88.64,44.17-25.66,18.7-52.4,39-67.3,67.84,48.92-32,102.87-73.24,162.16-81.88,63.67-9.28,120.11,21.24,136.81,85.4A173,173,0,0,1,897,320.12Z"/><path class="cls-3" d="M742.85,283.35c1.28,5.18-31,17.13-34.11,18.41A353.36,353.36,0,0,1,624,324.71c-73.41,10.09-141-23-204-56-22.77-11.94-46.52-23-71.95-26.73s-53,.5-73.1,16.57c-17.89,14.31-28.07,36.51-32.26,59-14.33,77,15.52,157.78,42.16,228.68,23.42,62.36,48.82,124.07,78.62,183.68,15,30.09,31.21,59.64,48.76,88.35,13.5,22.09,39.21,60.29,68.23,34.85,6.75-5.92,11.4-13.85,15.45-21.86,13-25.74,21.06-53.59,27.66-81.57,3.13-13.22,5.88-26.44,9.58-39.49,4.16-14.67,9.64-28.54,11.48-43.77-3.1,76.29-3,153.7-33.19,225.25-5.47,13-13.06,26.82-26.44,31.17-13.83,4.49-27.65-3-32.65-5.63C395.44,886.66,324.14,709.05,291.21,629.7c-21.95-52.9-29.46-68.42-49.15-118.78C191,380.17,186,342.7,189.37,306c3.31-36.36,12.31-76.23,39.71-103.61,61.69-61.64,165.93,9.68,220.41,46.67,0,0,31.22,20.77,91.28,40.29C645.17,323.28,741.66,278.55,742.85,283.35Z"/><path class="cls-2" d="M470.49,544.77c1.8-10.08,119.3,19.19,200.69-30.72,8.66-5.3,20.4-13.65,21.51-12.28,2.17,2.69-32.08,49.11-84,66.55C539.31,591.65,469.07,552.77,470.49,544.77Z"/></g></svg>